
<!-- Generator: Adobe Illustrator 19.0.0, SVG Export Plug-In . SVG Version: 6.00 Build 0)  -->
<svg version="1.1" id="Layer_1" xmlns="http://www.w3.org/2000/svg" xmlns:xlink="http://www.w3.org/1999/xlink" x="0px" y="0px"
	 viewBox="0 0 41.6 10.4" style="enable-background:new 0 0 41.6 10.4;" xml:space="preserve">
<style type="text/css">
	.st0{fill:#D32027;}
</style>
<g>
	<g>
		<path d="M0,8.5l0.5-0.8C1,8,1.5,8.2,1.9,8.2c0.4,0,0.5-0.1,0.5-0.3v0c0-0.3-0.4-0.4-0.9-0.5C0.9,7.2,0.2,6.9,0.2,6.1v0
			c0-0.9,0.7-1.4,1.6-1.4c0.6,0,1.2,0.2,1.6,0.5L3,6C2.5,5.8,2.1,5.6,1.8,5.6c-0.3,0-0.5,0.1-0.5,0.3v0c0,0.2,0.4,0.4,0.9,0.5
			c0.6,0.2,1.3,0.5,1.3,1.3v0c0,1-0.7,1.4-1.7,1.4C1.3,9.2,0.6,9,0,8.5z"/>
		<path d="M3.8,6.9L3.8,6.9c0-1.3,0.9-2.3,2.2-2.3C7.4,4.6,8,5.8,8,7c0,0.1,0,0.2,0,0.3H5c0.1,0.6,0.5,0.9,1.1,0.9
			c0.4,0,0.7-0.1,1.1-0.4l0.7,0.6C7.4,8.9,6.8,9.2,6,9.2C4.7,9.2,3.8,8.3,3.8,6.9z M6.8,6.6C6.8,6,6.4,5.6,5.9,5.6
			C5.4,5.6,5.1,6,5,6.6H6.8z"/>
		<path d="M8.5,9.9L8.9,9c0.4,0.3,0.9,0.4,1.5,0.4c0.8,0,1.2-0.4,1.2-1.2V8c-0.4,0.4-0.8,0.7-1.4,0.7c-1,0-1.9-0.7-1.9-2v0
			c0-1.3,0.9-2,1.9-2c0.7,0,1.1,0.3,1.4,0.6V4.7h1.2v3.4c0,0.8-0.2,1.3-0.6,1.7c-0.4,0.4-1,0.6-1.9,0.6C9.7,10.4,9.1,10.2,8.5,9.9z
			 M11.7,6.7L11.7,6.7c0-0.6-0.5-1-1.1-1c-0.6,0-1.1,0.4-1.1,1v0c0,0.6,0.5,1,1.1,1C11.2,7.7,11.7,7.3,11.7,6.7z"/>
		<path d="M13.5,4.7h1.2v0.6c0.3-0.4,0.7-0.7,1.3-0.7c0.6,0,1,0.3,1.2,0.7c0.4-0.4,0.8-0.7,1.4-0.7c0.9,0,1.5,0.6,1.5,1.6v2.8h-1.2
			V6.6c0-0.6-0.3-0.9-0.7-0.9c-0.5,0-0.7,0.3-0.7,0.9v2.4h-1.2V6.6c0-0.6-0.3-0.9-0.7-0.9c-0.5,0-0.7,0.3-0.7,0.9v2.4h-1.2V4.7z"/>
		<path d="M20.6,6.9L20.6,6.9c0-1.3,0.9-2.3,2.2-2.3c1.5,0,2.1,1.1,2.1,2.4c0,0.1,0,0.2,0,0.3h-3c0.1,0.6,0.5,0.9,1.1,0.9
			c0.4,0,0.7-0.1,1.1-0.4l0.7,0.6c-0.4,0.5-1,0.8-1.8,0.8C21.6,9.2,20.6,8.3,20.6,6.9z M23.7,6.6c-0.1-0.6-0.4-0.9-0.9-0.9
			c-0.5,0-0.8,0.4-0.9,0.9H23.7z"/>
	</g>
	<g>
		<path d="M25.3,4.7h1.2v0.6c0.3-0.4,0.6-0.7,1.3-0.7c0.9,0,1.5,0.6,1.5,1.6v2.8h-1.2V6.6c0-0.6-0.3-0.9-0.7-0.9
			c-0.5,0-0.8,0.3-0.8,0.9v2.4h-1.2V4.7z"/>
		<path d="M30.1,7.8V5.8h-0.5V4.7h0.5V3.6h1.2v1.1h1v1.1h-1v1.9c0,0.3,0.1,0.4,0.4,0.4c0.2,0,0.4-0.1,0.6-0.2v1
			c-0.3,0.2-0.6,0.3-1,0.3C30.6,9.1,30.1,8.8,30.1,7.8z"/>
		<path d="M32.9,4.7h1.2v4.4h-1.2V4.7z"/>
		<path d="M35.1,5.8h-0.5v-1h0.5V4.5c0-0.5,0.1-0.8,0.3-1.1c0.2-0.2,0.6-0.3,1-0.3c0.4,0,0.6,0,0.9,0.1v1c-0.2-0.1-0.3-0.1-0.6-0.1
			c-0.3,0-0.4,0.1-0.4,0.5v0.2h1v1h-1v3.3h-1.2V5.8z"/>
	</g>
	<path class="st0" d="M41.6,4.4c0-2.4-2-4.4-4.4-4.4c-2,0-3.7,1.3-4.2,3.2l0,0c0,0,0,0.1,0,0.2c0,0.3,0.2,0.5,0.5,0.5
		c0.2,0,0.5-0.2,0.5-0.4c0.4-1.4,1.7-2.4,3.2-2.4c1.8,0,3.3,1.5,3.3,3.3c0,0.2,0,0.4-0.1,0.6l0,0c0,0,0,0.1,0,0.1
		c0,0.3,0.2,0.5,0.5,0.5c0.3,0,0.5-0.2,0.5-0.5C41.6,4.9,41.6,4.6,41.6,4.4z"/>
	<path d="M40.2,6.4l-0.4,1.3l-1-3h-1.3l1.7,4.4c-0.1,0.2-0.2,0.3-0.4,0.3c-0.2,0-0.4-0.1-0.5-0.2l-0.4,0.9c0.3,0.2,0.6,0.3,1.1,0.3
		c0.7,0,1.1-0.3,1.4-1.2l1-2.8H40.2z"/>
</g>
</svg>
